<svg width="101" height="100" viewBox="0 0 101 100" fill="none" xmlns="http://www.w3.org/2000/svg">
<g id="Icon">
<rect id="Background" x="1" y="0.5" width="99" height="99" fill="#F2FCFF" stroke="#1E2C30"/>
<g id="Icon_2">
<g id="Group">
<g id="Group_2">
<path id="Vector" d="M56.8 57.6064C56.3978 57.155 55.706 57.117 55.2546 57.5192C54.595 58.1084 52.9413 58.7018 50.7335 58.7018C48.5242 58.7018 46.8705 58.107 46.2124 57.5192C45.761 57.117 45.0691 57.155 44.6669 57.6064C44.2647 58.0564 44.3027 58.7483 44.7541 59.1518C45.9733 60.2417 48.2092 60.8914 50.7335 60.8914C53.2591 60.8914 55.4936 60.2417 56.7128 59.1518C57.1642 58.7483 57.2036 58.0578 56.8 57.6064Z" fill="#5C8692"/>
</g>
</g>
<g id="Group_3">
<g id="Group_4">
<path id="Vector_2" d="M48.1447 47.9594C47.7369 47.5123 47.045 47.4813 46.5992 47.8891C46.2828 48.1774 45.4039 48.4882 44.2213 48.4882C43.0386 48.4882 42.1597 48.1774 41.8433 47.8891C41.3961 47.4813 40.7042 47.5137 40.2978 47.9594C39.89 48.4066 39.9223 49.0985 40.3681 49.5049C41.1725 50.239 42.6125 50.6763 44.2213 50.6763C45.83 50.6763 47.2714 50.239 48.0744 49.5049C48.5202 49.0985 48.5525 48.4052 48.1447 47.9594Z" fill="#5C8692"/>
</g>
</g>
<g id="Group_5">
<g id="Group_6">
<path id="Vector_3" d="M49.1971 42.8281C48.1719 42.1629 46.3129 41.7664 44.2218 41.7664C42.1307 41.7664 40.2702 42.1629 39.2465 42.8281C38.7402 43.1571 38.5954 43.835 38.9244 44.3412C39.134 44.6632 39.4855 44.839 39.8427 44.839C40.0466 44.839 40.2533 44.7814 40.4376 44.6618C40.9818 44.3089 42.3627 43.9531 44.2218 43.9531C46.0808 43.9531 47.4618 44.3089 48.006 44.6618C48.5137 44.9909 49.1915 44.8475 49.5191 44.3398C49.8482 43.835 49.7048 43.1571 49.1971 42.8281Z" fill="#5C8692"/>
</g>
</g>
<g id="Group_7">
<g id="Group_8">
<path id="Vector_4" d="M61.1701 47.9594C60.7623 47.5123 60.0704 47.4813 59.6246 47.8891C59.3082 48.1774 58.4293 48.4882 57.2466 48.4882C56.064 48.4882 55.1851 48.1774 54.8687 47.8891C54.4229 47.4813 53.7296 47.5137 53.3232 47.9594C52.9154 48.4066 52.9477 49.0985 53.3935 49.5049C54.1979 50.239 55.6379 50.6763 57.2466 50.6763C58.8554 50.6763 60.2954 50.239 61.0998 49.5049C61.547 49.0985 61.5779 48.4052 61.1701 47.9594Z" fill="#5C8692"/>
</g>
</g>
<g id="Group_9">
<g id="Group_10">
<path id="Vector_5" d="M62.2233 42.8281C61.1981 42.1629 59.339 41.7664 57.2466 41.7664C55.1555 41.7664 53.295 42.1629 52.2712 42.8281C51.7636 43.1571 51.6201 43.835 51.9492 44.3412C52.2783 44.8475 52.9561 44.9923 53.4637 44.6632C54.008 44.3103 55.3889 43.9545 57.248 43.9545C59.107 43.9545 60.488 44.3103 61.0322 44.6632C61.2164 44.7828 61.4231 44.8404 61.627 44.8404C61.9856 44.8404 62.3358 44.6646 62.5453 44.3426C62.8744 43.835 62.7295 43.1571 62.2233 42.8281Z" fill="#5C8692"/>
</g>
</g>
<g id="Group_11">
<g id="Group_12">
<path id="Vector_6" d="M71.9402 78.575C70.008 76.9325 67.3727 76.0283 64.5208 76.0283C60.7675 76.0283 58.1716 75.1916 57.0789 74.757V69.7958C62.7053 67.7553 67.0788 63.0838 68.7058 57.2745C72.2284 56.833 74.9664 53.8138 74.9664 50.18C74.9664 46.8205 72.5898 43.9334 69.3948 43.205V40.782C70.6591 36.3509 70.5803 31.9986 70.2864 29.1144C70.1191 27.4663 69.8659 26.1106 69.6831 25.2641C69.513 24.478 69.4033 24.0533 69.3217 23.8072C69.3048 23.7425 69.2837 23.6792 69.2542 23.6173C68.042 21.0481 65.8862 18.8586 63.1272 17.2175C63.0709 17.1767 63.0119 17.143 62.95 17.1134C59.5595 15.1461 55.2831 14 50.7339 14C47.1522 14 43.6492 14.7088 40.6047 16.0489C40.052 16.2922 39.8003 16.9377 40.0436 17.4917C40.2869 18.0444 40.9323 18.2961 41.4864 18.0528C44.2553 16.8336 47.4531 16.1895 50.7339 16.1895C54.3634 16.1895 57.7863 16.97 60.6241 18.3369C59.2938 19.4816 57.7103 20.5841 55.8175 21.6823C55.2944 21.9861 55.1172 22.6555 55.4209 23.1786C55.6234 23.5287 55.9905 23.7242 56.3687 23.7242C56.5558 23.7242 56.7442 23.6764 56.9172 23.5766C59.2094 22.2463 61.0895 20.8991 62.642 19.4745C64.5405 20.7177 66.0522 22.2659 67.0141 24.0392C66.9761 24.0997 66.9367 24.1587 66.8973 24.2192C66.8706 24.2586 66.8439 24.2994 66.8172 24.3387C64.4209 27.8291 59.3359 31.1731 51.9798 34.0967C51.9363 34.1136 51.8913 34.1305 51.8477 34.1488C51.6873 34.212 51.527 34.2753 51.3653 34.3372C44.0486 37.1637 36.5856 38.8245 33.9559 39.3631C33.3583 36.9402 33.1698 34.5495 33.1909 32.4134C34.1008 32.2306 35.0064 31.9691 35.8909 31.7145C36.5842 31.5134 37.3014 31.3067 37.9933 31.1464C38.0045 31.1436 38.0158 31.1408 38.027 31.138C42.5256 29.9469 46.9525 28.3381 52.382 25.9208C52.9347 25.6747 53.1822 25.0278 52.9361 24.4766C52.69 23.9253 52.0431 23.6764 51.4919 23.9225C46.1805 26.2878 41.8591 27.86 37.4842 29.0188C36.7403 29.1917 35.9992 29.4055 35.2834 29.6122C34.5986 29.8105 33.9377 30.0003 33.2908 30.1522C33.5284 27.095 34.1106 24.8984 34.2273 24.478C34.9853 22.9072 36.1834 21.4798 37.7908 20.2311C38.2689 19.8613 38.3547 19.1736 37.9848 18.6955C37.6136 18.2188 36.9273 18.1316 36.4492 18.5014C34.5409 19.9836 33.115 21.7048 32.2108 23.6202C32.1883 23.6694 32.1686 23.7186 32.1531 23.7706C32.0491 24.1152 29.6402 32.2728 32.0702 40.7862V43.2092C28.878 43.9334 26.5 46.8219 26.5 50.1814C26.5 53.8152 29.2394 56.8344 32.7606 57.2759C34.3877 63.0852 38.7625 67.7567 44.3875 69.7972V74.7584C43.292 75.1944 40.6975 76.0311 36.9456 76.0311C34.0937 76.0311 31.4598 76.9353 29.5263 78.5778C27.5758 80.2344 26.5 82.483 26.5 84.9059C26.5 85.5106 26.9894 86 27.5941 86H73.8737C74.4784 86 74.9678 85.5106 74.9678 84.9059C74.9678 82.483 73.892 80.2344 71.9402 78.575ZM69.2148 54.8361C69.333 53.9783 69.3948 53.112 69.3948 52.2472V45.4775C71.3636 46.1441 72.7783 48.0228 72.7783 50.1814C72.7783 52.4328 71.2637 54.3453 69.2008 54.9472C69.2064 54.9106 69.2106 54.8727 69.2148 54.8361ZM28.6881 50.1814C28.6881 48.0228 30.1028 46.1441 32.0716 45.4775V52.2472C32.0716 53.1134 32.1334 53.9783 32.2516 54.8361C32.2572 54.8727 32.26 54.9106 32.2656 54.9472C30.2027 54.3439 28.6881 52.4328 28.6881 50.1814ZM67.4219 27.1048C67.4472 27.0767 67.4725 27.0472 67.4978 27.0191C67.5667 26.9403 67.6342 26.8616 67.7003 26.7828C67.713 26.7673 67.727 26.7519 67.7397 26.7378C68.2361 29.5039 68.7423 34.3681 67.5105 39.3617C65.3322 38.9159 59.8323 37.7038 53.8642 35.6942C60.1178 33.1067 64.6558 30.2323 67.4219 27.1048ZM34.5241 55.1877C34.5227 55.1764 34.5198 55.1638 34.517 55.1525C34.3441 54.1948 34.2611 53.2203 34.2611 52.2472V44.143V41.533C34.2709 41.5316 34.2822 41.5288 34.2934 41.5259C35.988 41.1884 37.6727 40.7933 39.3489 40.3742C41.1152 39.9327 42.8716 39.4545 44.6167 38.9356C45.76 38.5953 46.8991 38.2381 48.0297 37.8598C48.0508 37.8528 48.0705 37.8458 48.0916 37.8388H53.3791C59.4808 39.8792 65.0847 41.1027 67.2081 41.5316V44.1416V52.2458C67.2081 53.2175 67.1223 54.1948 66.9508 55.1525C66.9494 55.1638 66.9466 55.175 66.9452 55.1862C65.8258 61.3794 61.2316 66.3786 55.262 68.0872C55.2522 68.09 55.2423 68.0928 55.2325 68.0956C53.7714 68.5062 52.2527 68.72 50.7339 68.72C49.2194 68.72 47.6894 68.5161 46.2339 68.0956C46.2269 68.0942 46.2213 68.0914 46.2142 68.09C40.2419 66.3828 35.6448 61.3822 34.5241 55.1877ZM28.7922 83.8105C29.0523 82.4591 29.7948 81.2202 30.9437 80.2428C32.4808 78.9364 34.6127 78.2178 36.9456 78.2178C42.5777 78.2178 45.8584 76.5092 45.9948 76.4361C46.352 76.2463 46.5756 75.875 46.5756 75.47C46.5756 75.47 46.5756 70.4427 46.5756 70.4441C46.5784 70.8617 50.5117 70.9095 50.7325 70.9095C52.1303 70.9095 53.5253 70.7548 54.8894 70.4441V75.4714C54.8894 75.8764 55.113 76.2477 55.4702 76.4375C55.6066 76.5106 58.8873 78.2192 64.5194 78.2192C66.8523 78.2192 68.9842 78.9378 70.5213 80.2442C71.6716 81.2216 72.4127 82.4605 72.6728 83.8119H28.7922V83.8105Z" fill="#5C8692"/>
</g>
</g>
</g>
</g>
</svg>
