<svg width="101" height="100" viewBox="0 0 101 100" fill="none" xmlns="http://www.w3.org/2000/svg">
<g id="Icon">
<rect id="Bg" x="1" y="0.5" width="99" height="99" fill="#F2FCFF" stroke="#1E2C30"/>
<g id="Icon_2">
<g id="Group">
<g id="Group_2">
<path id="Vector" d="M30.588 42.896C31.396 42.896 32.051 42.241 32.051 41.433C32.051 40.625 31.396 39.97 30.588 39.97C29.78 39.97 29.125 40.625 29.125 41.433C29.125 42.241 29.78 42.896 30.588 42.896Z" fill="#5C8692"/>
</g>
</g>
<g id="Group_3">
<g id="Group_4">
<path id="Vector_2" d="M80.07 39.8991C79.1491 38.8409 77.7873 38.2352 76.3345 38.2352H64.5004V35.7299C64.5004 32.0608 61.5151 29.0756 57.8461 29.0756H56.6997V28.8891C56.6997 26.2667 54.6208 24.1228 52.0245 24.0144V21.5192C53.1116 21.2648 54.0556 20.899 54.8493 20.4176C56.3238 19.5228 56.9628 18.4414 57.2389 17.6926C57.8548 16.02 57.2071 14.103 55.7644 13.3296C55.3538 13.1113 54.9187 13 54.4691 13C53.4904 13 52.5709 13.5436 52.0158 14.4326C51.7353 14.6162 50.6627 15.1699 47.929 15.1699H41.1185C37.6591 15.1699 35.5094 17.535 35.5094 21.3443C35.5094 23.2106 36.8539 24.73 38.5077 24.73C39.9808 24.73 41.2096 23.5243 41.4597 21.9413H44.7312V24.0144C42.1348 24.1228 40.056 26.2667 40.056 28.8891V29.0756H38.9081C35.2391 29.0756 32.2538 32.0608 32.2538 35.7299V35.8282H27.966C26.0636 35.8282 24.5153 37.3765 24.5153 39.279V45.8003C23.4759 46.6893 22.8152 48.0078 22.8152 49.4809V51.6306C20.8433 53.0386 19.5003 55.288 19.3283 57.8685C19.2546 59.0005 19.2025 60.2003 19.1751 61.432C19.162 62.0551 19.655 62.5712 20.2781 62.5857C20.8997 62.6001 21.4173 62.1057 21.4303 61.4826C21.4563 60.2842 21.5069 59.119 21.5792 58.0174C21.7295 55.7391 23.1347 53.8149 25.0863 52.9042C25.1008 52.8984 25.1138 52.8912 25.1268 52.8854C25.9074 52.5312 26.7719 52.3404 27.6292 52.3404H33.5448C34.4049 52.3404 35.2651 52.5312 36.0472 52.8854C36.0616 52.8912 36.0747 52.8984 36.0877 52.9042C38.061 53.8193 39.4502 55.8446 39.5948 58.0174C39.709 59.7305 39.7654 61.4913 39.7654 63.2478C39.7654 64.079 39.7423 64.9088 39.7249 65.7386C39.7235 65.7675 39.7235 65.7964 39.722 65.8268C39.7119 66.1203 38.8951 66.9298 38.7245 67.2334C38.4441 67.7322 38.2171 68.2569 38.0494 68.8034C37.6678 70.0437 37.5868 71.3521 37.5637 72.6416C37.5304 74.573 37.7227 76.513 38.1492 78.3981C38.1506 78.4068 38.1521 78.414 38.1549 78.4227C37.4422 80.383 35.6092 81.6797 33.5072 81.6797H27.6668C25.3436 81.6797 23.3082 80.023 22.8239 77.7404C22.0562 74.119 21.5965 70.1478 21.4563 65.9352C21.436 65.3121 20.9113 64.8235 20.2911 64.8452C19.668 64.8654 19.1794 65.3873 19.2011 66.0104C19.3456 70.3546 19.8227 74.4587 20.6164 78.2088C21.3189 81.528 24.2854 83.9379 27.6668 83.9379H33.5101C35.7075 83.9379 37.7025 82.9649 39.0368 81.3617C39.7495 83.2598 40.7094 85.0206 41.8963 86.5762C42.1102 86.8552 42.4413 87.02 42.7926 87.02H64.0855C64.4368 87.02 64.7693 86.8552 64.9818 86.5762C65.3259 86.1266 65.6497 85.6582 65.9547 85.1768H75.6564C76.2795 85.1768 76.7855 84.6722 76.7855 84.0477V74.732L79.4643 55.3806C79.5496 54.7633 79.1188 54.1937 78.5015 54.1084C77.8827 54.0231 77.3146 54.4539 77.2293 55.0712L75.0869 70.5512H69.1886C69.112 69.8096 68.9501 69.0781 68.6884 68.3798C67.8847 66.2374 66.2395 64.5474 64.1766 63.6656L64.1361 63.3692L61.3258 43.0665C61.3156 42.9943 61.3099 42.9205 61.307 42.8483C61.307 42.8439 61.307 42.841 61.307 42.8367C61.2867 42.1066 61.6785 41.4489 62.2481 41.0166C62.7063 40.6697 63.3077 40.4933 63.8788 40.4933H76.3359C77.1353 40.4933 77.877 40.8171 78.3699 41.3824C78.7892 41.8638 78.9742 42.4623 78.8904 43.0651L77.8538 50.555C77.7685 51.1723 78.1993 51.7419 78.8166 51.8272C79.4339 51.9125 80.0035 51.4817 80.0888 50.8644L81.1253 43.373C81.2988 42.1139 80.9244 40.8793 80.07 39.8991ZM41.1171 19.6832C40.5966 19.6832 39.9504 19.7425 39.576 20.1545C39.2825 20.4769 39.2479 20.9294 39.2479 21.3443C39.2479 22.0093 38.8575 22.4733 38.5062 22.4733C38.1549 22.4733 37.7646 22.0093 37.7646 21.3443C37.7646 17.9354 39.8651 17.428 41.1171 17.428H47.9275C48.9799 17.428 50.0728 17.3615 51.1181 17.136C52.0187 16.9408 53.0263 16.6517 53.6884 15.9751C53.9298 15.7279 54.0469 15.2595 54.4676 15.2595C54.5428 15.2595 54.6165 15.2798 54.6931 15.3203C55.0921 15.5342 55.3581 16.2614 55.1167 16.9148C54.923 17.441 54.0831 18.9286 50.7364 19.4779C50.7277 19.4794 50.7205 19.4794 50.7118 19.4808C49.7924 19.6312 48.8585 19.6847 47.9275 19.6847H45.8588L41.1171 19.6832ZM49.7649 21.8661V24.0071H46.9878V21.9399C46.9907 21.989 49.7649 21.8893 49.7649 21.8661ZM44.935 26.2638H45.8588H50.894H51.8177C53.2634 26.2638 54.4401 27.4406 54.4401 28.8862V29.0727H42.3126V28.8862C42.3126 27.4406 43.4894 26.2638 44.935 26.2638ZM26.7734 39.2833C26.7734 39.2818 26.7734 39.279 26.7734 39.2775C26.7734 38.6197 27.3083 38.0849 27.966 38.0849H33.2094C33.2354 38.0849 33.26 38.0877 33.2846 38.0892C33.2903 38.0892 33.2947 38.0906 33.299 38.0906C34.6218 38.1875 34.402 39.7271 34.402 40.6523C34.402 41.7756 34.402 42.8988 34.402 44.0221C34.402 44.2549 34.402 44.4862 34.402 44.7189C34.1115 44.6654 33.8151 44.638 33.5188 44.638C33.5188 44.638 27.6581 44.638 27.6552 44.638C27.382 44.638 27.0625 44.7175 26.7748 44.7088C26.6895 42.9119 26.7734 41.0846 26.7734 39.2833ZM36.1036 50.4842C36.1036 50.156 33.8628 50.0808 33.5448 50.0808H27.6321C26.7661 50.0808 25.8973 50.2182 25.0733 50.4842C25.0733 50.4842 25.0733 49.4794 25.0733 49.478C25.0733 48.0829 26.2616 46.8932 27.6581 46.8932H33.5216C34.3702 46.8932 35.1899 47.3326 35.6641 48.0352C36.1585 48.7682 36.1036 49.6413 36.1036 50.4842ZM67.6953 81.8518C67.7126 81.7954 67.7256 81.752 67.7358 81.7246C68.1275 80.6172 68.4774 79.4896 68.7332 78.3418C69.138 76.5289 69.3361 74.6626 69.3144 72.8049H74.5288V74.651V82.9158C74.5288 82.9158 67.1907 82.9158 67.1879 82.9158C67.3816 82.9172 67.5955 82.1814 67.6953 81.8518ZM66.4838 68.9595H61.1552C60.5321 68.9595 60.0261 69.464 60.0261 70.0886C60.0261 70.7131 60.5307 71.2176 61.1552 71.2176H66.9811C66.9855 71.2653 66.9883 71.3145 66.9927 71.3622C67.344 76.0374 66.2597 80.9121 63.5159 84.7619H43.3636C41.9801 82.8218 40.9783 80.5449 40.3986 78.0873C39.8709 75.848 39.7061 73.5104 39.8969 71.2176H56.6404C57.2635 71.2176 57.7695 70.7131 57.7695 70.0886C57.7695 69.464 57.2649 68.9595 56.6404 68.9595H40.3914C40.6834 68.267 41.1055 67.6324 41.6433 67.0831C42.7694 65.9323 44.3784 65.2471 46.0077 65.2471H60.8704C61.3865 65.2471 61.8953 65.3136 62.3854 65.4423C64.1925 65.9121 65.7436 67.2045 66.4838 68.9595ZM62.2423 38.5026C62.2423 38.4954 60.8964 39.2009 60.7677 39.3021C58.553 41.0672 59.124 43.6462 59.4609 46.0822L61.8086 63.0425C61.8014 63.041 61.7941 63.041 61.7855 63.041C61.6568 63.0266 61.5267 63.0165 61.3966 63.0078C61.3677 63.0063 61.3402 63.0034 61.3113 63.002C61.1653 62.9948 61.0178 62.989 60.8689 62.989H46.0077C45.2921 62.989 44.5779 63.0815 43.8855 63.2622C43.5486 63.3504 43.2162 63.4588 42.8938 63.586C42.7752 63.6338 42.022 63.8954 42.0206 63.9937C42.0235 63.7422 42.0235 63.4935 42.0235 63.2449C42.0235 61.4378 41.9642 59.6279 41.8471 57.8656C41.7618 56.5804 41.3686 55.3126 40.7195 54.2009C40.4246 53.6964 40.0762 53.2222 39.683 52.79C39.4792 52.5659 39.2638 52.3534 39.0368 52.1539C38.9515 52.0787 38.3602 51.6971 38.3602 51.6175V49.4765C38.3602 48.0844 37.7314 46.7038 36.6601 45.793V39.2761C36.6601 39.1951 36.6558 39.1156 36.65 39.0361C36.6486 39.0202 36.6471 39.0028 36.6457 38.9869C36.5358 37.6699 35.6843 36.5611 34.5105 36.0812V35.727C34.5105 33.3027 36.4838 31.3293 38.9081 31.3293H41.1836H55.5677H57.8432C60.2675 31.3293 62.2408 33.3027 62.2408 35.727C62.2423 35.7284 62.2423 38.5026 62.2423 38.5026Z" fill="#5C8692"/>
</g>
</g>
</g>
</g>
</svg>
